<?xml version="1.0" encoding="UTF-8" standalone="no"?>
<!-- Created with Inkscape (http://www.inkscape.org/) -->

<svg
   width="297mm"
   height="210mm"
   viewBox="0 0 297 210"
   version="1.1"
   id="svg1"
   xml:space="preserve"
   sodipodi:docname="bzk %.0.svg"
   inkscape:version="1.3.2 (091e20e, 2023-11-25, custom)"
   xmlns:inkscape="http://www.inkscape.org/namespaces/inkscape"
   xmlns:sodipodi="http://sodipodi.sourceforge.net/DTD/sodipodi-0.dtd"
   xmlns="http://www.w3.org/2000/svg"
   xmlns:svg="http://www.w3.org/2000/svg"><sodipodi:namedview
     id="namedview1"
     pagecolor="#ffffff"
     bordercolor="#000000"
     borderopacity="0.25"
     inkscape:showpageshadow="2"
     inkscape:pageopacity="0.0"
     inkscape:pagecheckerboard="0"
     inkscape:deskcolor="#d1d1d1"
     inkscape:document-units="mm"
     inkscape:zoom="0.93103384"
     inkscape:cx="692.77826"
     inkscape:cy="452.72254"
     inkscape:window-width="1920"
     inkscape:window-height="974"
     inkscape:window-x="-11"
     inkscape:window-y="-11"
     inkscape:window-maximized="1"
     inkscape:current-layer="layer1" /><defs
     id="defs1" /><g
     inkscape:label="Layer 1"
     inkscape:groupmode="layer"
     id="layer1"><path
       id="path2"
       style="display:none;opacity:1;fill:#f80e05;fill-opacity:1;stroke:#000000;stroke-width:0;stroke-dasharray:none"
       d="m 67.880094,30.666862 c -5.715073,0 -10.315649,4.601093 -10.315649,10.316166 V 57.990259 H 237.91416 V 40.983028 c 0,-5.715073 -4.60054,-10.316166 -10.31565,-10.316166 z m -10.315649,32.6316 V 82.991317 H 237.91416 V 63.298462 Z m 0,25.001058 v 57.62077 c 0,5.71511 4.600576,10.31617 10.315649,10.31617 H 227.59851 c 5.71511,0 10.31565,-4.60106 10.31565,-10.31617 V 88.29952 Z m 97.371315,29.56512 h 7.61918 c 2.76996,0 5.00021,1.83784 5.00021,4.12068 0,2.28283 -2.23025,4.12068 -5.00021,4.12068 h -7.61918 c -2.76996,0 -5.00021,-1.83785 -5.00021,-4.12068 0,-2.28284 2.23025,-4.12068 5.00021,-4.12068 z M 73.690592,118.03 H 105.7708 c 1.662,0 2.99982,1.33834 2.99982,3.00034 v 15.64504 c 0,1.662 -1.33782,3.00033 -2.99982,3.00033 H 73.690592 c -1.661988,0 -3.000333,-1.33833 -3.000333,-3.00033 v -15.64504 c 0,-1.662 1.338345,-3.00034 3.000333,-3.00034 z m 105.209078,0 h 40.88846 c 2.77,0 5.00022,1.83787 5.00022,4.12068 0,2.28284 -2.23022,4.12068 -5.00022,4.12068 h -40.88846 c -2.76997,0 -5.00021,-1.83784 -5.00021,-4.12068 0,-2.28281 2.23024,-4.12068 5.00021,-4.12068 z m -37.88916,13.40435 h 7.61969 c 2.77,0 4.9997,1.83785 4.9997,4.12068 0,2.28284 -2.2297,4.12068 -4.9997,4.12068 h -7.61969 c -2.76999,0 -4.99969,-1.83784 -4.99969,-4.12068 0,-2.28283 2.2297,-4.12068 4.99969,-4.12068 z m 23.96443,0 h 54.81319 c 2.77,0 5.00022,1.83786 5.00022,4.12068 0,2.28284 -2.23022,4.12068 -5.00022,4.12068 h -54.81319 c -2.76998,0 -5.00021,-1.83784 -5.00021,-4.12068 0,-2.28282 2.23023,-4.12068 5.00021,-4.12068 z"
       inkscape:label="original" /><g
       id="g19"
       transform="translate(-2.8418229,22.610348)"
       style="fill:#49479d;fill-opacity:1"><path
         id="path4"
         style="display:inline;opacity:1;fill:#49479d;fill-opacity:1;stroke:#000000;stroke-width:0;stroke-dasharray:none"
         inkscape:label="rechts"
         d="m 170.06921,27.516662 7.70858,16.50752 -6.81871,10.815877 h 89.28499 V 37.832828 c 0,-5.715067 -4.60054,-10.316166 -10.31565,-10.316166 z m -2.4567,32.6316 -6.31744,10.020577 6.73396,9.672278 h 92.21504 V 60.148262 Z m 4.1119,25.001058 5.20071,7.469828 -18.75596,29.554782 2.58589,6.71691 c 0.75558,-0.37733 1.63378,-0.60669 2.58537,-0.60669 h 7.61969 c 2.77,0 4.9997,1.83786 4.9997,4.12068 0,2.28284 -2.2297,4.12068 -4.9997,4.12068 h -7.26622 l 6.37532,16.56075 h 79.85921 c 5.71511,0 10.31565,-4.60106 10.31565,-10.31617 V 85.14932 Z m 5.54126,29.56512 h 7.61918 c 2.76995,0 5.00021,1.83784 5.00021,4.12068 0,2.28283 -2.23026,4.12068 -5.00021,4.12068 h -7.61918 c -2.76995,0 -5.00021,-1.83785 -5.00021,-4.12068 0,-2.28284 2.23026,-4.12068 5.00021,-4.12068 z m 23.96391,0.16536 h 40.88846 c 2.77,0 5.00022,1.83788 5.00022,4.12068 0,2.28284 -2.23022,4.12068 -5.00022,4.12068 h -40.88846 c -2.76996,0 -5.00021,-1.83784 -5.00021,-4.12068 0,-2.2828 2.23025,-4.12068 5.00021,-4.12068 z m -13.92473,13.40435 h 54.81319 c 2.77,0 5.00022,1.83787 5.00022,4.12068 0,2.28284 -2.23022,4.12068 -5.00022,4.12068 h -54.81319 c -2.76997,0 -5.00021,-1.83784 -5.00021,-4.12068 0,-2.28281 2.23024,-4.12068 5.00021,-4.12068 z" /><path
         id="path14"
         style="display:inline;fill:#49479d;stroke:#000000;stroke-width:0;fill-opacity:1"
         d="m 48.767923,52.031532 c -5.523778,1.466195 -8.789982,7.093592 -7.323787,12.61737 l 4.363199,16.438016 88.016885,-23.36262 3.81568,-12.203219 -11.68557,-13.977396 z m -1.598771,34.18593 5.052194,19.033758 85.184904,-22.61092 -8.99,-7.620961 3.53523,-11.305938 z m 6.414012,24.164298 14.782588,55.69227 c 1.466202,5.5238 7.093224,8.79061 12.617002,7.32441 l 77.186406,-20.48785 -10.4106,-14.37088 -0.34163,0.0907 c -2.67728,0.71064 -5.30386,-0.49366 -5.88952,-2.70009 -0.38447,-1.44844 0.22135,-2.94898 1.43186,-4.01629 l -4.22243,-5.82818 10.54596,-33.377456 -6.94304,-5.885578 z m 23.213767,24.59828 31.006529,-8.23017 c 1.60634,-0.42637 3.24275,0.52394 3.66914,2.13032 l 4.01373,15.12141 c 0.42638,1.60638 -0.52333,3.24315 -2.12967,3.66952 l -31.006531,8.23017 c -1.606357,0.42638 -3.243265,-0.52381 -3.669651,-2.13019 l -4.013729,-15.12141 c -0.426385,-1.60638 0.523825,-3.24327 2.130182,-3.66965 z"
         inkscape:label="links" /></g><path
       sodipodi:type="star"
       style="fill:#1a1a1a;stroke:#000000;stroke-width:0"
       id="path19"
       inkscape:flatsided="false"
       sodipodi:sides="3"
       sodipodi:cx="69.908844"
       sodipodi:cy="14.209114"
       sodipodi:r1="50.148312"
       sodipodi:r2="25.074156"
       sodipodi:arg1="1.259798"
       sodipodi:arg2="2.3069956"
       inkscape:rounded="0"
       inkscape:randomized="0"
       d="M 85.25469,61.951738 53.072142,32.789716 20.889596,3.6276944 62.235922,-9.6621984 103.58225,-22.95209 94.418468,19.499825 Z"
       inkscape:transform-center-x="18.39323"
       inkscape:transform-center-y="22.174003"
       transform="matrix(0.65831278,0.10958308,-0.0896555,0.80463488,103.3157,25.105529)" /></g></svg>
