<?xml version="1.0" encoding="UTF-8" standalone="no"?>
<!-- Created with Inkscape (http://www.inkscape.org/) -->

<svg
   width="162.97122mm"
   height="148.24068mm"
   viewBox="0 0 162.97122 148.24068"
   version="1.1"
   id="svg1"
   inkscape:version="1.3.2 (091e20e, 2023-11-25, custom)"
   sodipodi:docname="beides.svg"
   inkscape:export-filename="karte.svg"
   inkscape:export-xdpi="155.95703"
   inkscape:export-ydpi="155.95703"
   xmlns:inkscape="http://www.inkscape.org/namespaces/inkscape"
   xmlns:sodipodi="http://sodipodi.sourceforge.net/DTD/sodipodi-0.dtd"
   xmlns="http://www.w3.org/2000/svg"
   xmlns:svg="http://www.w3.org/2000/svg">
  <sodipodi:namedview
     id="namedview1"
     pagecolor="#ffffff"
     bordercolor="#000000"
     borderopacity="0.25"
     inkscape:showpageshadow="2"
     inkscape:pageopacity="0.0"
     inkscape:pagecheckerboard="0"
     inkscape:deskcolor="#d1d1d1"
     inkscape:document-units="mm"
     inkscape:zoom="0.93103385"
     inkscape:cx="302.88909"
     inkscape:cy="573.01891"
     inkscape:window-width="1920"
     inkscape:window-height="974"
     inkscape:window-x="-11"
     inkscape:window-y="-11"
     inkscape:window-maximized="1"
     inkscape:current-layer="layer1"
     showgrid="false" />
  <defs
     id="defs1">
    <clipPath
       clipPathUnits="userSpaceOnUse"
       id="clipPath6-7-3">
      <path
         d="m 0,0.028 h 858.869 v 1207.53 H 0 Z"
         transform="translate(0,-3.0118111e-5)"
         clip-rule="evenodd"
         id="path6-0-0" />
    </clipPath>
    <clipPath
       clipPathUnits="userSpaceOnUse"
       id="clipPath14-7">
      <path
         d="m 0,0.028 h 858.869 v 1207.53 H 0 Z"
         transform="translate(0,-3.0118111e-5)"
         clip-rule="evenodd"
         id="path14-0" />
    </clipPath>
  </defs>
  <g
     inkscape:label="Layer 1"
     inkscape:groupmode="layer"
     id="layer1"
     transform="translate(-22.821797,-79.722723)">
    <g
       id="g182"
       transform="matrix(0.25088589,0,0,0.25088589,-125.55233,-100.42086)"
       style="fill:#0000ff"
       inkscape:export-filename="../g182.svg"
       inkscape:export-xdpi="96"
       inkscape:export-ydpi="96">
      <path
         id="path13-9"
         clip-path="url(#clipPath14-7)"
         style="display:inline;fill:#49479d;fill-opacity:1;fill-rule:evenodd;stroke:none"
         d="m 853.68459,507.30513 c -1.10912,0.25863 -2.36977,-0.004 -3.80127,-0.81152 -8.10699,-4.535 -16.21377,-8.95659 -24.40576,-13.35059 -9.38299,-5.07399 -9.38348,-5.07476 -4.16748,-14.34375 2.041,-3.65699 1.78651,-4.30762 -2.12549,-6.03662 -14.17299,-6.23599 -29.05599,-10.46047 -43.62598,-15.64746 -14.71198,-5.301 -29.02716,-11.28148 -41.55615,-20.83447 -7.42699,-5.669 -13.74743,-12.44491 -20.60742,-19.89991 -0.397,4.167 -0.25466,7.51217 -1.07666,10.74317 -2.353,9.46799 -11.282,14.2876 -18.70899,10.1206 -2.409,-1.389 -3.74096,-3.6 -4.95996,-5.89599 -4.16699,-7.852 -8.33402,-15.70413 -12.41601,-23.64112 -1.077,-2.126 -1.89942,-2.52302 -3.62842,-0.62402 -1.474,1.474 -3.17526,2.8343 -4.98926,3.8833 -7.68199,4.422 -15.61915,1.38917 -17.34815,-6.94482 -1.81399,-8.929 -4.33602,-17.74437 -4.47802,-26.98536 -0.085,-5.72599 -0.59627,-5.89599 -6.32227,-5.89599 H 451.61573 c -6.03799,0 -7.68164,-1.70211 -7.68164,-7.68311 V 251.43354 c 0,-6.00899 1.64369,-7.71093 7.59668,-7.71093 h 239.10206 c 6.20799,0 7.7959,1.64482 7.7959,7.96582 V 289.956 c 0,1.077 -0.73739,2.57838 1.8706,2.38038 19.47398,-1.616 38.92039,-3.08894 58.42237,-4.33594 6.85999,-0.454 13.83226,-1.10635 20.63525,0.76465 9.69499,2.69299 15.0239,10.0351 19.58789,18.14209 11.08299,19.67198 22.11071,39.3732 33.1377,59.15918 7.28499,13.09599 18.11308,22.9885 29.62207,32.22949 1.332,1.134 2.71993,1.81391 4.02393,-0.14209 1.616,-2.296 3.60003,-2.12574 5.81103,-0.90674 9.32599,5.074 18.73749,10.0637 28.06348,15.1377 5.55599,3.033 5.75338,3.91112 2.69238,9.49512 -13.57798,24.77497 -27.21188,49.57756 -40.81787,74.35254 -1.644,2.94799 -3.1183,5.92477 -4.9043,8.75976 -0.822,1.2755 -1.77954,2.05437 -2.88867,2.31299 z m -3.31933,-9.99463 c 1.70099,0 2.04055,-1.55972 2.66455,-2.63672 7.79499,-14.05998 15.47715,-28.12006 23.24414,-42.12304 5.55599,-9.92099 10.99829,-19.89918 16.69629,-29.76417 1.644,-2.86299 1.38935,-4.42183 -1.78565,-5.92382 -5.83899,-2.863 -11.62202,-6.03724 -17.29101,-9.24024 -2.523,-1.389 -3.91227,-0.9644 -5.30127,1.5586 -11.93399,21.76997 -23.89593,43.45528 -35.85791,65.19726 -1.531,2.721 -2.97767,5.41345 -4.45166,8.10645 -0.652,1.247 -0.84994,2.40961 0.53906,3.20361 6.94499,3.827 13.83365,7.62503 20.80664,11.39502 0.17,0.142 0.45382,0.14205 0.73682,0.22705 z m -24.99903,-30.71045 c 1.43109,0.25524 2.43482,-0.35069 3.45557,-2.20019 9.97799,-18.22698 19.98384,-36.36896 30.13183,-54.48194 1.531,-2.75 -0.1696,-3.77022 -1.8706,-5.07422 -9.92099,-7.85199 -19.50265,-16.10039 -26.70264,-26.58838 -7.34199,-10.60199 -13.40781,-21.91279 -19.4458,-33.27978 -6.88799,-13.03899 -14.19988,-25.96423 -21.79687,-38.72022 -4.252,-7.11499 -10.318,-10.71549 -18.70899,-10.37549 -3.6,0.17 -7.20006,0.0571 -11.31006,0.0571 -18.56698,1.417 -37.64483,2.94841 -56.77881,4.3374 -2.523,0.198 -3.4292,1.30292 -3.4292,3.71192 -0.085,8.02199 -0.22693,16.10239 -0.48193,24.06738 -0.17,2.75 0.65112,4.16611 3.59912,4.30811 3.317,0.142 6.63352,0.5667 9.97852,0.9917 2.12599,0.312 3.2021,-0.25426 3.2871,-2.63526 0.142,-2.83499 1.10663,-5.38622 4.53663,-5.07422 3.37299,0.34 3.85541,3.11787 3.62841,5.83887 -0.90699,11.11199 1.87043,21.03322 8.50342,29.99121 1.956,2.579 3.85488,3.93927 7.17188,2.94727 2.324,-0.737 4.8465,-0.96371 7.3125,-1.30371 2.523,-0.312 4.50739,0.65257 5.04638,3.28857 0.425,2.466 -1.04824,3.99746 -3.34423,4.56446 -4.507,0.93499 -8.98715,1.81342 -13.49414,2.60742 -1.644,0.255 -3.11699,-0.62384 -4.56299,-1.36084 -19.55898,-10.96999 -39.11823,-21.85574 -58.76221,-32.74073 -3.288,-1.81399 -6.63339,-3.68515 -9.92139,-5.55615 -7.36999,-4.10999 -13.8327,-4.08069 -18.9917,0.34131 -5.64099,4.876 -7.37041,12.24576 -4.64941,19.21875 1.304,3.345 3.99682,5.2437 6.94482,6.8877 3.685,2.09799 7.37035,4.13917 11.02735,6.18017 10.96998,6.208 21.96874,12.38668 33.05273,18.36768 9.89199,5.30099 18.05539,12.64256 25.56738,20.66455 9.58099,10.14799 18.50983,20.94842 30.52881,28.54541 11.59399,7.28499 24.20781,12.35929 37.13379,16.69629 14.05999,4.677 28.17592,9.24149 41.75391,15.25049 0.58825,0.26225 1.11379,0.44226 1.59082,0.52734 z M 699.28566,430.71284 c 1.11975,0.0672 2.30314,-0.72611 3.53613,-2.37011 1.786,-2.381 2.06853,-3.45705 2.04053,-9.66504 -0.142,-3.005 -0.96358,-7.45513 -2.26758,-11.84912 -0.567,-1.814 -1.64318,-3.28833 -3.11718,-4.50733 -4.649,-3.91199 -9.26965,-7.85236 -14.91065,-10.31836 -1.389,-0.624 -3.03344,-2.46566 -4.25244,-1.07666 -1.474,1.587 -1.55893,4.05284 -0.48193,6.23584 2.35299,4.592 4.73375,9.24053 7.11474,13.83252 3.005,5.641 6.15158,11.28235 9.18457,16.92334 0.978,1.8 2.03406,2.72767 3.15381,2.79492 z m -38.16211,-25.98632 c 0.78846,-0.011 1.77674,-0.42115 3.06299,-1.18653 5.47099,-3.25999 6.85967,-8.67472 7.28467,-15.76172 0.312,-1.814 -0.87963,-3.71158 -3.51563,-5.10058 -4.27999,-2.211 -8.44677,-4.65013 -12.61377,-6.97412 -0.652,-0.369 -1.30352,-1.04903 -2.04052,-0.62403 -0.822,0.482 -0.31205,1.30503 -0.22705,1.95703 1.53099,8.164 3.00527,16.27102 5.30126,24.20801 0.67313,2.40937 1.43396,3.5002 2.74805,3.48194 z m -207.12598,-40.021 c 61.19994,-0.085 122.39926,-0.085 183.4292,-0.085 -5.07399,-2.948 -8.19138,-7.37102 -8.58838,-13.43701 -0.48199,-7.37 0.25507,-14.25733 5.41407,-20.15333 7.42699,-8.47599 18.25398,-11.08423 28.14697,-5.69824 9.24099,4.989 18.70967,9.63864 27.32666,15.61963 1.644,1.134 2.29528,0.90571 2.23828,-1.05029 -0.028,-0.34 0,-0.73666 0,-1.07666 0,-28.31797 -0.0279,-56.63565 0.0571,-84.95362 0,-3.03299 -1.0758,-3.7705 -3.9668,-3.7705 -77.95292,0.085 -155.90629,0.085 -233.88721,0 -2.778,0 -3.85547,0.73751 -3.85547,3.7705 0.085,35.77297 0.085,71.4611 0,107.20606 0,2.778 0.90755,3.62842 3.68555,3.62842 z m 204.93018,-0.79102 c -0.49946,-0.006 -0.99928,-0.12757 -1.48828,-0.37207 -0.51,-0.255 -0.93597,-0.59466 -1.41797,-1.07666 -1.531,-1.644 -1.27604,-3.48726 0.085,-4.98926 3.43,-3.82699 6.29395,-7.85173 8.02295,-12.69873 0.68,-2.06899 2.66408,-2.63539 4.70508,-1.98339 0.226,0.028 0.39702,0.11288 0.62402,0.25488 1.418,0.68 2.12553,2.06931 2.04053,4.19531 -1.445,6.12299 -4.70544,11.64909 -10.14844,15.78809 -0.76187,0.58437 -1.59042,0.89233 -2.42285,0.88183 z m 60.1084,-7.25976 c -1.389,-4.989 -2.46646,-8.84387 -3.54346,-12.75586 -0.482,-1.644 -1.70028,-2.35233 -3.25927,-2.46533 -3.487,-0.312 -6.88837,-0.65191 -10.31836,-0.87891 -1.304,-0.085 -2.92071,-0.42533 -3.34571,1.38867 -0.34,1.616 -0.3109,3.20215 1.4751,4.22315 5.981,3.23099 11.96171,6.57628 18.9917,10.48828 z m -253.07667,-4.02539 c -4.93199,-0.057 -4.98925,-0.056 -4.98925,-4.875 v -79.71094 c 0,-4.989 4.7e-4,-5.01709 4.87646,-5.01709 h 75.34424 75.74121 c 4.989,0 4.98926,1.3e-4 4.98926,4.93213 v 79.6831 c 0,4.932 -1.7e-4,4.93213 -4.84717,4.93213 -50.37195,0.057 -100.7428,0.0557 -151.11475,0.0557 z m 65.48585,-19.13672 c 2.49271,-0.009 5.06149,-0.48575 7.56298,-1.38575 7.257,-2.52299 8.81508,-9.12855 9.58008,-15.78955 0.255,-2.55099 0,-5.1586 0,-7.7666 0.255,-4.96099 0.14233,-9.8353 -1.38867,-14.6543 -4.167,-13.15298 -18.08448,-13.57865 -25.70947,-9.32666 -4.649,2.608 -6.15079,7.28501 -7.02979,12.10401 -1.304,7.70999 -1.33206,15.42006 0.48194,23.10205 2.23199,9.56699 9.02478,13.74464 16.50293,13.7168 z m 64.73877,-0.0557 c 2.62206,-0.0992 5.23584,-0.64288 7.65234,-1.55713 2.098,-0.822 3.85406,-1.9844 4.08106,-4.3374 0.17,-1.559 0.82201,-3.45699 -0.70899,-4.56299 -1.275,-0.935 -2.46512,0.56692 -3.59912,1.19092 -5.98099,2.948 -12.35966,2.20997 -15.22266,-1.95703 -0.85,-1.219 -1.89871,-2.60706 -1.30371,-4.08105 0.652,-1.502 2.43738,-0.76474 3.71338,-0.90674 1.587,-0.085 3.20304,-0.057 4.79004,0 2.098,0 2.77894,-1.16283 2.83594,-3.09082 0,-1.899 -0.73777,-3.06006 -2.86377,-3.06006 -2.353,0 -4.67679,-0.085 -7.02979,0 -2.43799,0.085 -2.8623,-1.30475 -2.8623,-3.26074 0,-2.098 0.56627,-3.28862 2.94726,-3.20362 2.211,0.085 4.42195,-0.057 6.68995,0 2.21099,0.085 3.11865,-1.02019 3.11865,-3.11719 -0.057,-2.26799 -1.13475,-3.08952 -3.26074,-3.06152 -1.984,0.057 -3.99696,-0.028 -5.98096,0 -2.353,0.057 -2.69257,-1.10552 -1.95557,-3.06152 1.247,-3.515 4.73443,-5.55615 9.83643,-5.55615 2.863,-0.17 5.61258,0.8215 8.16357,2.4375 2.041,1.30399 2.86223,0.68027 3.03223,-1.61573 0.312,-4.39399 -0.50892,-5.78258 -4.73291,-7.14258 -5.187,-1.70099 -10.40347,-1.70099 -15.64746,0 -5.329,1.729 -8.75945,5.41404 -10.46045,10.68604 -0.68,2.268 -1.07724,4.56449 -4.36524,4.47949 -1.53099,-0.085 -1.61555,1.55831 -1.64355,2.86231 0,1.389 0.0859,2.92069 1.8999,3.03369 2.211,0.085 2.60729,1.38815 2.55029,3.20215 0,1.70099 -0.0845,3.2327 -2.4375,3.3457 -2.01199,0.142 -1.98469,1.78524 -2.01269,3.34424 -0.057,1.786 0.76572,2.86381 2.63672,2.77881 2.239,-0.142 2.86207,1.30335 3.37207,3.08935 2.955,9.71549 10.9014,13.41978 18.76758,13.12207 z m -96.3794,-0.59326 c 3.118,0.17 3.68555,-1.47319 3.68555,-4.13818 0.028,-2.721 -0.51064,-4.50724 -3.82764,-4.36524 -4.11,0.227 -8.19193,-4e-5 -12.27393,0.085 -2.38099,0.085 -3.51411,-0.82274 -3.28711,-3.26074 0,-0.255 -0.085,-0.50981 -0.085,-0.73681 -0.142,-6.661 -0.14206,-6.63266 6.37793,-6.97266 2.211,-0.085 4.42186,-0.39687 6.54786,-0.96387 5.58399,-1.474 8.92815,-5.32937 9.41015,-10.63037 0.85,-8.27699 -1.72849,-14.08823 -8.02148,-17.17822 -6.945,-3.373 -14.20271,-3.06065 -21.34571,-0.76465 -2.52299,0.822 -3.59937,4.81867 -2.38037,7.28467 0.822,1.587 1.81335,0.82197 2.77735,0.39697 3.45799,-1.531 7.11513,-2.04064 10.82812,-1.78564 5.358,0.48199 8.19304,3.45881 8.16504,8.6748 0,4.904 -2.77888,7.76661 -8.19287,8.07861 -2.863,0.113 -5.69755,0.0277 -8.56055,-0.11425 -2.296,-0.028 -3.31657,0.9354 -3.28857,3.3164 0.057,6.378 0,12.84206 0,19.24805 -0.028,2.693 1.13451,3.82604 3.77051,3.76904 3.34499,-0.028 6.69064,-0.0278 10.03564,-0.0278 3.203,0.028 6.40504,-0.085 9.66504,0.085 z m 31.86182,-6.94482 c -4.025,0.057 -6.49206,-2.0687 -7.45606,-6.8877 -1.417,-7.45499 -1.33183,-14.99537 -0.0278,-22.42236 0.822,-4.819 2.977,-6.80274 6.91699,-6.80274 3.912,-0.085 6.37759,2.12591 7.45459,6.77491 0.879,3.62799 1.04891,7.28505 0.87891,10.99804 0.17,3.827 9e-5,7.65419 -0.87891,11.36719 -0.992,4.677 -3.2027,6.88766 -6.88769,6.97266 z"
         transform="matrix(1.3333333,0,0,-1.3333333,35.80754,1633.8623)" />
      <path
         id="path176"
         style="fill:#49479d;fill-opacity:1;stroke:#000000;stroke-width:0"
         d="M 959.96094,896.88672 956.875,899 l -0.008,5.3418 -1.74219,-3.4668 3.47266,16.11328 46.94143,84.18552 c 0.8637,1.7538 1.4609,3.1617 1.4609,3.5782 0,2.2015 -1.4082,3.4441 -7.16405,6.3222 -3.07219,1.5362 -9.00271,4.6918 -13.17969,7.0117 -8.37104,4.6492 -10.31575,5.2678 -12.03906,3.836 -0.45229,-0.3758 -2.52,-3.7426 -5.07031,-8.1953 l -10.64649,-19.90433 -4.66016,2.49023 4.61329,13.2695 -0.81055,5.1719 2.36719,4.4199 c 0.007,1.0439 0.015,2.5942 0.002,3.4649 l -5.77344,4.8672 -0.0859,0.068 1.9043,12.3164 4.26172,-3.5976 c 0.0959,-0.029 0.20449,-0.1231 0.32617,-0.2754 l 3.0586,-2.5821 c 1.04906,-0.6532 2.09287,-1.1855 2.54101,-1.1855 0.54674,0 1.99714,0.9251 3.22461,2.0566 1.89911,1.7508 2.47348,2.0193 3.84375,1.7969 2.03276,-0.3298 43.05651,-22.4626 44.91211,-24.2305 1.7057,-1.6251 1.804,-3.8169 0.3047,-6.7675 -0.1534,-0.3019 -5.8776,-10.72963 -7.541,-13.77933 l 0.2031,0.30664 z"
         transform="translate(221,68.913079)" />
    </g>
    <g
       id="g174"
       transform="matrix(0.26921708,0,0,0.26921708,-83.417651,-114.5098)">
      <path
         id="path5-8-8"
         clip-path="url(#clipPath6-7-3)"
         style="fill:#49479d;fill-opacity:1;fill-rule:evenodd;stroke:none"
         d="m 185.07422,1142.3618 c -10.77199,0 -17.17822,-6.4632 -17.17822,-17.1782 0,-7.37 -0.14204,-14.7959 0.085,-22.1089 0.113,-3.232 -0.9076,-3.8276 -3.9126,-3.6006 -20.55098,1.814 -41.01653,4.1951 -61.62451,5.2441 -5.810994,0.255 -11.197529,-0.9074 -16.186524,-3.8554 -5.498994,-3.317 -8.700659,-8.4758 -11.847656,-13.7198 -10.714989,-18.3399 -21.316879,-36.6226 -32.088868,-54.8496 -6.972993,-11.792 -17.007141,-20.7782 -27.80713,-28.9702 -1.246999,-0.964 -2.57947,-1.729 -3.855469,0.085 -1.558998,2.296 -3.4301152,2.0409 -5.641113,0.8789 -8.5889914,-4.53602 -17.205611,-8.90074 -25.766602,-13.40774 -5.668995,-2.94799 -5.839599,-3.6577 -2.891602,-9.2417 9.098991,-17.31998 18.1985411,-34.61002 27.2695321,-51.95801 4.3939956,-8.39099 8.7307979,-16.75426 13.2377929,-25.03125 1.955998,-3.74199 3.599543,-3.99648 7.22754,-2.12549 7.596992,4.082 15.336434,8.02201 22.961426,12.10401 8.191992,4.33699 8.192503,4.33686 3.770508,12.44385 -2.153998,3.91199 -2.041469,4.42192 2.040527,6.06592 15.476985,6.34999 31.691166,10.4604 47.452148,16.12939 13.49299,4.876 26.36152,10.85659 37.41651,20.26758 4.22399,3.6 8.07908,7.54011 11.93408,11.53711 0.652,0.68 1.21837,2.04063 2.38037,1.47363 1.134,-0.482 0.48206,-1.81334 0.53906,-2.77734 0.085,-2.069 0.0292,-4.19501 0.59619,-6.20801 1.474,-5.556 6.03686,-10.43109 10.40186,-10.91309 6.12299,-0.652 9.41105,2.8054 12.01904,7.8794 3.487,6.85999 7.37031,13.55105 11.11231,20.26904 1.077,1.984 2.04139,3.03269 4.02539,0.67969 1.021,-1.304 2.46643,-2.38158 3.94043,-3.28858 7.05899,-4.59199 14.65486,-1.87086 16.60986,5.95313 1.645,6.57596 3.34546,13.18196 4.56446,19.81496 1.41799,7.625 1.0218,6.6606 8.36279,6.6606 36.99296,0 73.98477,-0.1128 110.94873,-0.028 11.76299,0 17.60269,5.7262 17.65869,17.3481 0.114,29.537 0.029,59.2442 0.085,88.8091 0,4.394 -1.78533,7.9357 -4.81933,11.0537 -3.826,3.912 -8.67327,4.5074 -13.71826,4.5074 -24.71798,0.057 -49.46624,0.057 -74.24122,0.057 -24.97297,0 -50.00208,0.028 -75.06006,0 z m 0.50977,-7.6245 c 17.06498,0.028 34.12854,0 51.16553,0 32.62597,0 65.22606,-0.057 97.85303,-0.057 8.41799,0 10.93979,-2.5512 10.88379,-10.8852 -0.029,-20.693 -0.029,-41.4415 -0.085,-62.1065 0,-8.0499 0.14103,-16.0717 -0.085,-24.0937 -0.17099,-7.087 -3.11801,-9.7806 -10.06201,-9.7236 -20.46698,0.057 -40.98907,0.085 -61.45605,0.1421 -16.09999,0.028 -32.17295,0 -48.27393,0 -0.907,0 -1.78529,0.1127 -3.57129,0.1977 3.486,2.92 6.34824,5.1585 8.21924,8.4185 4.76199,8.674 3.20423,19.2198 -4.05176,26.6748 -6.97399,7.172 -16.55611,8.6451 -25.6831,3.8261 -7.229,-3.77 -14.45639,-7.6806 -21.71338,-11.5356 -0.907,-0.482 -1.84261,-1.276 -2.89161,-0.624 -0.879,0.567 -0.53906,1.7006 -0.53906,2.5796 0,14.8249 -0.0279,29.6491 0.0571,44.4741 0,7.682 0.14188,15.3922 0.25488,23.0742 0.142,7.342 2.52353,9.6387 9.97852,9.6387 z m 123.60791,-17.9678 c -0.69135,-0.036 -1.43084,-0.3317 -2.22803,-0.9961 -2.60799,-2.126 -1.21915,-4.252 0.33985,-6.293 0.567,-0.737 1.3036,-1.333 1.8706,-2.042 10.00599,-12.6139 11.82139,-26.3899 6.3794,-41.2719 -1.899,-5.244 -4.98973,-9.8357 -8.84473,-13.8897 -1.389,-1.417 -1.53093,-3.0611 -0.48193,-4.7051 0.822,-1.304 2.15459,-1.6438 3.60058,-1.4458 1.389,0.142 2.23819,1.1337 3.11719,2.0977 8.36199,8.929 13.01054,19.418 13.12354,31.749 0.312,7.937 -1.47284,15.5049 -4.90283,22.7329 -2.041,4.309 -4.87566,8.1348 -7.99366,11.6778 -1.16943,1.2863 -2.459,2.4658 -3.97998,2.3862 z m -9.14062,-8.9312 c -0.66336,-0.028 -1.35526,-0.2984 -2.07276,-0.9096 -2.38099,-1.956 -1.64411,-4.422 0.25489,-6.3779 10.14799,-10.488 9.83595,-27.8633 0.085,-38.4083 -1.899,-1.956 -2.86277,-4.3941 -0.50977,-6.3501 2.239,-1.8139 4.36475,-0.5102 6.09375,1.3038 6.293,6.605 8.90008,14.6272 9.58008,22.7622 -0.255,10.233 -3.05996,18.6516 -9.52295,25.6816 -1.13025,1.2471 -2.44881,2.3599 -3.9082,2.2983 z m -9.01026,-9.0571 c -0.64686,-0.02 -1.33308,-0.271 -2.07715,-0.8379 -2.52299,-1.984 -1.38907,-4.2518 0.16993,-6.3208 5.24399,-7.313 5.24394,-13.5786 -0.22705,-20.8916 -1.502,-1.956 -2.12583,-3.969 -0.0278,-5.726 2.069,-1.871 4.11008,-0.8793 5.72608,0.9067 4.10999,4.422 6.09392,9.6665 6.06592,16.2715 -0.482,4.96 -1.84308,10.0916 -5.72608,14.2866 -1.24712,1.2863 -2.48071,2.3568 -3.90381,2.3115 z m -189.94776,-1.5337 c 1.14509,0.039 2.33154,0.016 3.56104,-0.069 19.87098,-1.446 39.62804,-3.6573 59.49902,-5.3013 2.863,-0.255 3.82768,-1.3045 3.74268,-4.0825 -0.142,-3.713 0,-7.398 0,-11.083 0,-3.6 -0.14217,-7.1724 0.0278,-10.7153 0.142,-2.693 -0.90755,-4.0809 -3.68554,-4.1939 -2.976,-0.199 -5.98023,-0.3983 -8.92823,-0.7383 -2.211,-0.284 -3.34574,0.4537 -3.26074,2.7217 0,0.142 -0.0278,0.2548 -0.0278,0.3398 -0.312,2.438 -1.2751,4.3945 -3.9961,4.2525 -3.00499,-0.17 -3.68541,-2.3811 -3.62841,-4.9321 0.028,-4.961 0.17028,-9.8089 -1.30371,-14.7129 -1.758,-5.726 -4.64856,-10.7142 -8.56055,-15.2212 -1.134,-1.304 -2.29643,-1.6438 -3.94043,-1.2188 -2.438,0.595 -4.98859,1.0487 -7.45459,1.4737 -2.58,0.482 -4.81923,-0.1426 -5.38623,-2.8916 -0.567,-2.58 1.30303,-3.8261 3.45703,-4.3081 3.827,-0.907 7.65428,-1.7298 11.50928,-2.4668 1.729,-0.34 3.3733,0.341 4.90429,1.163 18.42499,9.808 36.90686,19.6147 55.36084,29.4507 3.515,1.871 7.03042,3.7421 10.54542,5.6411 7.85199,4.167 16.04349,1.5591 20.12548,-6.4629 3.855,-7.4549 0.99176,-15.3636 -6.71923,-19.3886 -3.174,-1.644 -6.37825,-3.3453 -9.55225,-4.9893 -12.21799,-6.406 -24.49078,-12.8685 -36.50977,-19.6435 -9.18399,-5.159 -16.78086,-12.61347 -23.52685,-20.60746 -15.19399,-17.85798 -34.52708,-28.63011 -56.581059,-35.43311 -14.257986,-4.42199 -28.657738,-8.70297 -42.490724,-14.54297 -2.295998,-0.99199 -3.487286,-0.28322 -4.592285,1.84278 -8.730992,16.78098 -17.489506,33.53484 -26.333497,50.17383 -1.275999,2.43799 -1.389376,3.99707 1.161621,5.72607 20.21098,13.71996 32.570962,33.73176 44.02295,54.50976 6.462994,11.679 13.152664,23.2163 20.097657,34.6113 4.464246,7.441 10.447298,10.8224 18.462887,11.0962 z m 64.67725,-42.958 c 1.049,0.085 1.8704,-0.2267 1.9834,-1.3887 0.142,-1.389 0.31242,-2.8355 -1.24658,-3.6855 -5.811,-3.09 -11.67898,-6.2071 -18.39697,-9.8071 1.36099,4.592 2.4372,8.2489 3.42919,11.8769 0.425,1.474 1.61678,1.9556 2.86377,2.0406 3.827,0.397 7.5972,0.6518 11.36719,0.9638 z m 42.86866,-33.0351 c 0.15317,-0.027 0.30234,-0.1015 0.44384,-0.2432 0.312,-0.283 0.17101,-1.0486 0.31201,-1.8706 -1.95599,-7.653 -3.99699,-15.5051 -5.89599,-23.41407 -0.567,-2.438 -2.0123,-2.52415 -3.8833,-1.70215 -3.6,1.673 -5.64078,4.62201 -6.71778,8.25002 -0.482,1.446 -0.85082,2.9189 -1.04882,4.3359 -0.595,5.386 -0.28351,5.8119 4.47949,8.2779 3.65599,1.928 7.28379,3.9691 10.88379,5.8681 0.46725,0.234 0.96724,0.5792 1.42676,0.4981 z m -26.12696,-13.9512 c 1.2983,0.1887 1.80366,-0.6991 1.91016,-2.5913 0.085,-1.559 -0.22687,-2.9205 -0.96387,-4.2525 -5.15899,-9.41095 -10.23371,-18.82107 -15.44971,-28.20406 -1.502,-2.721 -3.76994,-2.8908 -5.66894,-0.42481 -1.786,2.211 -2.60754,4.81845 -2.35254,8.10645 0.142,4.39399 1.36047,8.90072 2.83447,13.40771 0.34,1.049 1.07794,1.7868 1.81494,2.4668 4.904,4.50701 10.37386,7.99291 16.29785,10.94091 0.62375,0.3048 1.14488,0.4879 1.57764,0.5508 z M 4.6918946,995.62253 c 1.4961548,0.28443 2.33038,-0.68301 3.244629,-2.44776 C 13.265518,982.85678 18.679924,972.56698 24.065919,962.24899 30.528912,950.06 36.821637,937.81408 43.36963,925.6821 c 1.473999,-2.721 1.304313,-4.11016 -1.700684,-5.55616 -5.668994,-2.72099 -11.197385,-5.8103 -16.838379,-8.7583 -0.453,-0.255 -0.991375,-0.51132 -1.359375,-0.65332 -1.955998,0.057 -2.353899,1.55998 -2.920899,2.75098 -8.333991,15.87398 -16.6957936,31.74792 -25.0297853,47.6499 -3.5429965,6.80299 -7.0301677,13.66238 -10.7431647,20.38037 -1.303998,2.353 -0.877861,3.48746 1.390137,4.56446 5.6409945,2.86299 11.2532561,5.72526 16.7812505,8.84326 0.6732494,0.38975 1.2444459,0.62442 1.7431641,0.71924 z"
         transform="matrix(1.3333333,0,0,-1.3333333,428.53409,2244.637)"
         inkscape:export-filename="karte.svg"
         inkscape:export-xdpi="96"
         inkscape:export-ydpi="96" />
      <path
         id="path168"
         style="fill:#49479d;fill-opacity:1;stroke:#000000;stroke-width:0"
         d="m 211.2207,838.25391 -8.69336,4.63671 -0.0391,0.0195 c -1.2435,0.64368 -1.41476,0.73241 -2.99609,1.55078 -13.55166,7.01325 -21.0214,10.92629 -22.33203,11.69922 -3.56042,2.09972 -4.17496,3.46157 -2.98047,6.59765 0.31477,0.82643 5.66939,11.20861 11.90039,23.07031 2.42875,4.62352 3.93914,7.50672 6.37109,12.13868 l 17.81445,34.1582 -0.86914,-22.95117 -7.64062,-14.40039 c -2.08202,-3.98539 -4.43064,-8.4851 -5.54102,-10.625 -1.38737,-2.67375 -3.71563,-7.08819 -5.17382,-9.81055 -4.16018,-7.76679 -4.67948,-8.81085 -4.8086,-9.67187 -0.17056,-1.13733 0.33454,-2.227 1.35156,-2.91602 0.42404,-0.28728 3.51677,-1.92335 6.8711,-3.63477 2.40222,-1.22563 4.69531,-2.429 6.83594,-3.55078 l -0.004,0.0234 5.83984,-3 0.01,-0.006 0.39648,-0.20312 -0.0137,-0.004 0.41016,-0.22266 -0.004,-0.084 3.53906,-1.88281 z"
         transform="translate(221,68.913079)" />
    </g>
  </g>
</svg>
